<svg width="1653" height="1005" xmlns="http://www.w3.org/2000/svg" xmlns:xlink="http://www.w3.org/1999/xlink" overflow="hidden"><defs><clipPath id="clip0"><rect x="8930" y="7449" width="1653" height="1005"/></clipPath><clipPath id="clip1"><rect x="8931" y="7449" width="1650" height="1003"/></clipPath><clipPath id="clip2"><rect x="9217" y="7619" width="1317" height="681"/></clipPath><clipPath id="clip3"><rect x="9217" y="7619" width="1317" height="681"/></clipPath><clipPath id="clip4"><rect x="9217" y="7619" width="1317" height="681"/></clipPath><clipPath id="clip5"><rect x="8931" y="7449" width="1650" height="1003"/></clipPath><clipPath id="clip6"><rect x="8931" y="7449" width="1650" height="1003"/></clipPath><clipPath id="clip7"><rect x="8931" y="7449" width="1650" height="1003"/></clipPath><clipPath id="clip8"><rect x="8931" y="7449" width="1650" height="1003"/></clipPath><clipPath id="clip9"><rect x="8931" y="7449" width="1650" height="1003"/></clipPath><clipPath id="clip10"><rect x="8931" y="7449" width="1650" height="1003"/></clipPath><clipPath id="clip11"><rect x="8931" y="7449" width="1650" height="1003"/></clipPath><clipPath id="clip12"><rect x="8931" y="7449" width="1650" height="1003"/></clipPath><clipPath id="clip13"><rect x="8931" y="7449" width="1650" height="1003"/></clipPath><clipPath id="clip14"><rect x="8931" y="7449" width="1650" height="1003"/></clipPath><clipPath id="clip15"><rect x="8931" y="7449" width="1650" height="1003"/></clipPath><clipPath id="clip16"><rect x="8931" y="7449" width="1650" height="1003"/></clipPath><clipPath id="clip17"><rect x="8931" y="7449" width="1650" height="1003"/></clipPath><clipPath id="clip18"><rect x="8931" y="7449" width="1650" height="1003"/></clipPath><clipPath id="clip19"><rect x="8931" y="7449" width="1650" height="1003"/></clipPath><clipPath id="clip20"><rect x="8931" y="7449" width="1650" height="1003"/></clipPath><clipPath id="clip21"><rect x="8931" y="7449" width="1650" height="1003"/></clipPath><clipPath id="clip22"><rect x="8931" y="7449" width="1650" height="1003"/></clipPath><clipPath id="clip23"><rect x="8931" y="7449" width="1650" height="1003"/></clipPath><clipPath id="clip24"><rect x="8931" y="7449" width="1650" height="1003"/></clipPath><clipPath id="clip25"><rect x="8931" y="7449" width="1650" height="1003"/></clipPath><clipPath id="clip26"><rect x="8931" y="7449" width="1650" height="1003"/></clipPath><clipPath id="clip27"><rect x="8931" y="7449" width="1650" height="1003"/></clipPath><clipPath id="clip28"><rect x="8931" y="7449" width="1650" height="1003"/></clipPath><clipPath id="clip29"><rect x="8931" y="7449" width="1650" height="1003"/></clipPath><clipPath id="clip30"><rect x="8931" y="7449" width="1650" height="1003"/></clipPath><clipPath id="clip31"><rect x="8931" y="7449" width="1650" height="1003"/></clipPath><clipPath id="clip32"><rect x="8931" y="7449" width="1650" height="1003"/></clipPath><clipPath id="clip33"><rect x="8931" y="7449" width="1650" height="1003"/></clipPath><clipPath id="clip34"><rect x="8931" y="7449" width="1650" height="1003"/></clipPath><clipPath id="clip35"><rect x="8931" y="7449" width="1650" height="1003"/></clipPath><clipPath id="clip36"><rect x="8931" y="7449" width="1650" height="1003"/></clipPath><clipPath id="clip37"><rect x="8931" y="7449" width="1650" height="1003"/></clipPath><clipPath id="clip38"><rect x="8931" y="7449" width="1650" height="1003"/></clipPath><clipPath id="clip39"><rect x="8931" y="7449" width="1650" height="1003"/></clipPath><clipPath id="clip40"><rect x="8931" y="7449" width="1650" height="1003"/></clipPath><clipPath id="clip41"><rect x="8931" y="7449" width="1650" height="1003"/></clipPath><clipPath id="clip42"><rect x="8931" y="7449" width="1650" height="1003"/></clipPath><clipPath id="clip43"><rect x="8931" y="7449" width="1650" height="1003"/></clipPath></defs><g clip-path="url(#clip0)" transform="translate(-8930 -7449)"><rect x="8931" y="7450" width="1650" height="1002" fill="#FFFFFF"/><g clip-path="url(#clip1)"><path d="M9217.5 8296.5 10530.5 8296.5M9217.5 8211.77 10530.5 8211.77M9217.5 8127.77 10530.5 8127.77M9217.5 8042.76 10530.5 8042.76M9217.5 7958.76 10530.5 7958.76M9217.5 7788.76 10530.5 7788.76M9217.5 7704.75 10530.5 7704.75M9217.5 7619.5 10530.5 7619.5" stroke="#D9D9D9" stroke-width="3.4375" stroke-linejoin="round" stroke-miterlimit="10" fill="none"/></g><g clip-path="url(#clip2)"><path d="M9301.31 8021.26 9377.31 8021.26 9377.31 7874.26 9301.31 7874.26ZM9739.32 8031.26 9815.32 8031.26 9815.32 7874.26 9739.32 7874.26ZM10176.3 8056.26 10253.3 8056.26 10253.3 7874.26 10176.3 7874.26Z" fill="#2F5597"/></g><g clip-path="url(#clip3)"><path d="M9398.31 8195.27 9474.31 8195.27 9474.31 7874.26 9398.31 7874.26ZM9836.32 8178.27 9912.33 8178.27 9912.33 7874.26 9836.32 7874.26ZM10274.3 8239.27 10350.3 8239.27 10350.3 7874.26 10274.3 7874.26Z" fill="#B4C7E7"/></g><g clip-path="url(#clip4)"><path d="M9495.31 7892.26 9571.31 7892.26 9571.31 7874.26 9495.31 7874.26ZM9933.33 7760.25 10009.3 7760.25 10009.3 7874.26 9933.33 7874.26ZM10371.3 7718.25 10447.3 7718.25 10447.3 7874.26 10371.3 7874.26Z" fill="#002060"/></g><g clip-path="url(#clip5)"><path d="M9217.5 7873.5 10530.5 7873.5" stroke="#D9D9D9" stroke-width="3.4375" stroke-linejoin="round" stroke-miterlimit="10" fill="none" fill-rule="evenodd"/></g><g clip-path="url(#clip6)"><text fill="#404040" font-family="Calibri,Calibri_MSFontService,sans-serif" font-weight="400" font-size="41" transform="matrix(1 0 0 1 9296.45 8081)">-</text></g><g clip-path="url(#clip7)"><text fill="#404040" font-family="Calibri,Calibri_MSFontService,sans-serif" font-weight="400" font-size="41" transform="matrix(1 0 0 1 9309.08 8081)">0.87</text></g><g clip-path="url(#clip8)"><text fill="#404040" font-family="Calibri,Calibri_MSFontService,sans-serif" font-weight="400" font-size="41" transform="matrix(1 0 0 1 9734.3 8091)">-</text></g><g clip-path="url(#clip9)"><text fill="#404040" font-family="Calibri,Calibri_MSFontService,sans-serif" font-weight="400" font-size="41" transform="matrix(1 0 0 1 9746.93 8091)">0.93</text></g><g clip-path="url(#clip10)"><text fill="#404040" font-family="Calibri,Calibri_MSFontService,sans-serif" font-weight="400" font-size="41" transform="matrix(1 0 0 1 10172.2 8116)">-</text></g><g clip-path="url(#clip11)"><text fill="#404040" font-family="Calibri,Calibri_MSFontService,sans-serif" font-weight="400" font-size="41" transform="matrix(1 0 0 1 10184.8 8116)">1.08</text></g><g clip-path="url(#clip12)"><text fill="#404040" font-family="Calibri,Calibri_MSFontService,sans-serif" font-weight="400" font-size="41" transform="matrix(1 0 0 1 9403.95 8255)">-</text></g><g clip-path="url(#clip13)"><text fill="#404040" font-family="Calibri,Calibri_MSFontService,sans-serif" font-weight="400" font-size="41" transform="matrix(1 0 0 1 9416.57 8255)">1.9</text></g><g clip-path="url(#clip14)"><text fill="#404040" font-family="Calibri,Calibri_MSFontService,sans-serif" font-weight="400" font-size="41" transform="matrix(1 0 0 1 9841.8 8238)">-</text></g><g clip-path="url(#clip15)"><text fill="#404040" font-family="Calibri,Calibri_MSFontService,sans-serif" font-weight="400" font-size="41" transform="matrix(1 0 0 1 9854.43 8238)">1.8</text></g><g clip-path="url(#clip16)"><text fill="#404040" font-family="Calibri,Calibri_MSFontService,sans-serif" font-weight="400" font-size="41" transform="matrix(1 0 0 1 10269.2 8299)">-</text></g><g clip-path="url(#clip17)"><text fill="#404040" font-family="Calibri,Calibri_MSFontService,sans-serif" font-weight="400" font-size="41" transform="matrix(1 0 0 1 10281.8 8299)">2.16</text></g><g clip-path="url(#clip18)"><text fill="#404040" font-family="Calibri,Calibri_MSFontService,sans-serif" font-weight="400" font-size="41" transform="matrix(1 0 0 1 9490.54 7952)">-</text></g><g clip-path="url(#clip19)"><text fill="#404040" font-family="Calibri,Calibri_MSFontService,sans-serif" font-weight="400" font-size="41" transform="matrix(1 0 0 1 9503.17 7952)">0.11</text></g><g clip-path="url(#clip20)"><text fill="#404040" font-family="Calibri,Calibri_MSFontService,sans-serif" font-weight="400" font-size="41" transform="matrix(1 0 0 1 9934.71 7728)">0.67</text></g><g clip-path="url(#clip21)"><text fill="#404040" font-family="Calibri,Calibri_MSFontService,sans-serif" font-weight="400" font-size="41" transform="matrix(1 0 0 1 10372.6 7686)">0.92</text></g><g clip-path="url(#clip22)"><text fill="#595959" font-family="Calibri,Calibri_MSFontService,sans-serif" font-weight="400" font-size="41" transform="matrix(1 0 0 1 9114.34 8308)">-2.5</text></g><g clip-path="url(#clip23)"><text fill="#595959" font-family="Calibri,Calibri_MSFontService,sans-serif" font-weight="400" font-size="41" transform="matrix(1 0 0 1 9145.64 8224)">-2</text></g><g clip-path="url(#clip24)"><text fill="#595959" font-family="Calibri,Calibri_MSFontService,sans-serif" font-weight="400" font-size="41" transform="matrix(1 0 0 1 9114.34 8139)">-1.5</text></g><g clip-path="url(#clip25)"><text fill="#595959" font-family="Calibri,Calibri_MSFontService,sans-serif" font-weight="400" font-size="41" transform="matrix(1 0 0 1 9145.64 8055)">-1</text></g><g clip-path="url(#clip26)"><text fill="#595959" font-family="Calibri,Calibri_MSFontService,sans-serif" font-weight="400" font-size="41" transform="matrix(1 0 0 1 9114.34 7970)">-0.5</text></g><g clip-path="url(#clip27)"><text fill="#595959" font-family="Calibri,Calibri_MSFontService,sans-serif" font-weight="400" font-size="41" transform="matrix(1 0 0 1 9158.27 7885)">0</text></g><g clip-path="url(#clip28)"><text fill="#595959" font-family="Calibri,Calibri_MSFontService,sans-serif" font-weight="400" font-size="41" transform="matrix(1 0 0 1 9126.96 7801)">0.5</text></g><g clip-path="url(#clip29)"><text fill="#595959" font-family="Calibri,Calibri_MSFontService,sans-serif" font-weight="400" font-size="41" transform="matrix(1 0 0 1 9158.27 7716)">1</text></g><g clip-path="url(#clip30)"><text fill="#595959" font-family="Calibri,Calibri_MSFontService,sans-serif" font-weight="400" font-size="41" transform="matrix(1 0 0 1 9126.96 7631)">1.5</text></g><g clip-path="url(#clip31)"><text font-family="Calibri,Calibri_MSFontService,sans-serif" font-weight="400" font-size="41" transform="matrix(1 0 0 1 9384.26 7939)">Stable</text></g><g clip-path="url(#clip32)"><text font-family="Calibri,Calibri_MSFontService,sans-serif" font-weight="400" font-size="41" transform="matrix(1 0 0 1 9835.75 7939)">Gain</text></g><g clip-path="url(#clip33)"><text font-family="Calibri,Calibri_MSFontService,sans-serif" font-weight="400" font-size="41" transform="matrix(1 0 0 1 10276.4 7939)">Loss</text></g><g clip-path="url(#clip34)"><text fill="#595959" font-family="Calibri,Calibri_MSFontService,sans-serif" font-weight="400" font-size="46" transform="matrix(6.12323e-17 -1 1 6.12323e-17 9032.71 8279)">Change in Pollutant Concentration </text></g><g clip-path="url(#clip35)"><text fill="#595959" font-family="Calibri,Calibri_MSFontService,sans-serif" font-weight="400" font-size="46" transform="matrix(6.12323e-17 -1 1 6.12323e-17 9088.71 8030)">(µg/m³)</text></g><g clip-path="url(#clip36)"><text fill="#595959" font-family="Calibri,Calibri_MSFontService,sans-serif" font-weight="400" font-size="64" transform="matrix(1 0 0 1 9471.5 7545)">PM2.5 </text></g><g clip-path="url(#clip37)"><text fill="#595959" font-family="Calibri,Calibri_MSFontService,sans-serif" font-weight="400" font-size="64" transform="matrix(1 0 0 1 9655.25 7545)">Zonal Statistics</text></g><g clip-path="url(#clip38)"><rect x="9566" y="8375" width="23" height="22" fill="#2F5597"/></g><g clip-path="url(#clip39)"><text fill="#595959" font-family="Calibri,Calibri_MSFontService,sans-serif" font-weight="400" font-size="41" transform="matrix(1 0 0 1 9598.58 8397)">Mean</text></g><g clip-path="url(#clip40)"><rect x="9727" y="8375" width="23" height="22" fill="#B4C7E7"/></g><g clip-path="url(#clip41)"><text fill="#595959" font-family="Calibri,Calibri_MSFontService,sans-serif" font-weight="400" font-size="41" transform="matrix(1 0 0 1 9759.75 8397)">Min</text></g><g clip-path="url(#clip42)"><rect x="9858" y="8375" width="22" height="22" fill="#002060"/></g><g clip-path="url(#clip43)"><text fill="#595959" font-family="Calibri,Calibri_MSFontService,sans-serif" font-weight="400" font-size="41" transform="matrix(1 0 0 1 9890.1 8397)">Max</text></g><rect x="8931.5" y="7450.5" width="1650" height="1002" stroke="#D9D9D9" stroke-width="3.4375" stroke-linejoin="round" stroke-miterlimit="10" fill="none"/></g></svg>